<mxfile host="app.diagrams.net" modified="2020-05-01T16:56:58.941Z" agent="5.0 (Windows NT 10.0; Win64; x64) AppleWebKit/537.36 (KHTML, like Gecko) Chrome/81.0.4044.129 Safari/537.36" etag="w82pAOOSM4xwFn2VLWXK" version="13.0.5" type="github">
  <diagram id="A-lRvXMCUyouXJSLUCNt" name="Page-1">
    <mxGraphModel dx="1038" dy="556" grid="1" gridSize="10" guides="1" tooltips="1" connect="1" arrows="1" fold="1" page="1" pageScale="1" pageWidth="827" pageHeight="1169" math="0" shadow="0">
      <root>
        <mxCell id="0" />
        <mxCell id="1" parent="0" />
        <mxCell id="0ghuIrE4dX-iRaHXYtQV-6" value="" style="edgeStyle=orthogonalEdgeStyle;rounded=0;orthogonalLoop=1;jettySize=auto;html=1;" edge="1" parent="1" source="0ghuIrE4dX-iRaHXYtQV-2" target="0ghuIrE4dX-iRaHXYtQV-5">
          <mxGeometry relative="1" as="geometry" />
        </mxCell>
        <mxCell id="0ghuIrE4dX-iRaHXYtQV-2" value="Consumer" style="rounded=0;whiteSpace=wrap;html=1;" vertex="1" parent="1">
          <mxGeometry x="294" y="230" width="120" height="60" as="geometry" />
        </mxCell>
        <mxCell id="0ghuIrE4dX-iRaHXYtQV-5" value="Spark Streaming" style="rounded=0;whiteSpace=wrap;html=1;" vertex="1" parent="1">
          <mxGeometry x="494" y="230" width="120" height="60" as="geometry" />
        </mxCell>
        <mxCell id="0ghuIrE4dX-iRaHXYtQV-4" style="edgeStyle=orthogonalEdgeStyle;rounded=0;orthogonalLoop=1;jettySize=auto;html=1;entryX=0;entryY=0.5;entryDx=0;entryDy=0;" edge="1" parent="1" source="0ghuIrE4dX-iRaHXYtQV-3" target="0ghuIrE4dX-iRaHXYtQV-2">
          <mxGeometry relative="1" as="geometry" />
        </mxCell>
        <mxCell id="0ghuIrE4dX-iRaHXYtQV-3" value="Topic" style="rounded=0;whiteSpace=wrap;html=1;" vertex="1" parent="1">
          <mxGeometry x="80" y="230" width="120" height="60" as="geometry" />
        </mxCell>
      </root>
    </mxGraphModel>
  </diagram>
</mxfile>
